<mxfile host="app.diagrams.net" agent="Mozilla/5.0 (Windows NT 10.0; Win64; x64) AppleWebKit/537.36 (KHTML, like Gecko) Chrome/136.0.0.0 Safari/537.36" version="27.1.1">
  <diagram name="Page-1" id="taYUtSJ_4CDuhA6wjiIW">
    <mxGraphModel dx="5456" dy="2317" grid="1" gridSize="10" guides="1" tooltips="1" connect="1" arrows="1" fold="1" page="1" pageScale="1" pageWidth="850" pageHeight="1100" math="0" shadow="0" adaptiveColors="auto">
      <root>
        <mxCell id="0" />
        <mxCell id="1" parent="0" />
        <mxCell id="h_4dqQD72bOemCukOD2A-1" value="" style="whiteSpace=wrap;html=1;fillColor=none;rounded=0;" parent="1" vertex="1">
          <mxGeometry x="-625" y="110" width="1280" height="400" as="geometry" />
        </mxCell>
        <mxCell id="h_4dqQD72bOemCukOD2A-2" value="Tutorial Level" style="text;html=1;align=center;verticalAlign=middle;resizable=0;points=[];autosize=1;strokeColor=none;fillColor=none;rounded=0;" parent="1" vertex="1">
          <mxGeometry x="-235" y="80" width="100" height="30" as="geometry" />
        </mxCell>
        <mxCell id="h_4dqQD72bOemCukOD2A-7" value="" style="rhombus;whiteSpace=wrap;html=1;rounded=0;" parent="1" vertex="1">
          <mxGeometry x="-595" y="450" width="20" height="20" as="geometry" />
        </mxCell>
        <mxCell id="h_4dqQD72bOemCukOD2A-9" value="Spawn" style="text;html=1;align=center;verticalAlign=middle;whiteSpace=wrap;rounded=0;" parent="1" vertex="1">
          <mxGeometry x="-615" y="470" width="60" height="30" as="geometry" />
        </mxCell>
        <mxCell id="h_4dqQD72bOemCukOD2A-11" value="&lt;h1 style=&quot;margin-top: 0px;&quot;&gt;&lt;span style=&quot;background-color: transparent; color: light-dark(rgb(0, 0, 0), rgb(255, 255, 255));&quot;&gt;Tutorial Level&lt;/span&gt;&lt;/h1&gt;&lt;h1 style=&quot;margin-top: 0px;&quot;&gt;&lt;span style=&quot;font-size: 12px; font-weight: 400; line-height: 100%;&quot;&gt;The first level of the game. In this level, player will be introduced to the basic mechanics of the game(Movements, Attacks, Abilities)&lt;/span&gt;&lt;/h1&gt;&lt;div&gt;&lt;span style=&quot;font-size: 12px; font-weight: 400; line-height: 100%;&quot;&gt;Flow of level:&lt;/span&gt;&lt;/div&gt;&lt;div&gt;1. Player will be introduced to movement system&lt;/div&gt;&lt;div&gt;2. Player interact with door(showcasing example of interact button)&lt;/div&gt;&lt;div&gt;3. Player interact with the weapons to try them out&lt;/div&gt;&lt;div&gt;4. Each weapons will have a special ability&lt;/div&gt;&lt;div&gt;&lt;span style=&quot;white-space: pre;&quot;&gt;&#x9;&lt;/span&gt;a. Handgun will have rapid fire&lt;br&gt;&lt;/div&gt;&lt;div&gt;&lt;span style=&quot;white-space: pre;&quot;&gt;&#x9;&lt;/span&gt;b. Assault Rifle will have faster reload speed&lt;br&gt;&lt;/div&gt;&lt;div&gt;&lt;span style=&quot;white-space: pre;&quot;&gt;&#x9;&lt;/span&gt;c. Melee weapon extended range and increase damage&lt;br&gt;&lt;/div&gt;&lt;div&gt;5. Player go to the next room, where there will be a normal enemy.&amp;nbsp;&lt;/div&gt;&lt;div&gt;&lt;span style=&quot;white-space: pre;&quot;&gt;&#x9;&lt;/span&gt;a. Introducing dash/dodging&lt;br&gt;&lt;/div&gt;&lt;div&gt;6. Go to the next level&lt;/div&gt;&lt;div&gt;&lt;br&gt;&lt;/div&gt;&lt;div&gt;&lt;br&gt;&lt;/div&gt;" style="text;html=1;whiteSpace=wrap;overflow=hidden;rounded=0;" parent="1" vertex="1">
          <mxGeometry x="-625" y="510" width="620" height="310" as="geometry" />
        </mxCell>
        <mxCell id="C2N_jpq54dSIksbOcnpH-1" value="Dummy Target&lt;div&gt;&lt;br&gt;&lt;/div&gt;" style="shape=umlActor;verticalLabelPosition=bottom;verticalAlign=top;html=1;outlineConnect=0;rounded=0;" parent="1" vertex="1">
          <mxGeometry x="-197.5" y="285" width="25" height="50" as="geometry" />
        </mxCell>
        <mxCell id="C2N_jpq54dSIksbOcnpH-4" value="" style="endArrow=none;html=1;rounded=0;" parent="1" target="h_4dqQD72bOemCukOD2A-1" edge="1">
          <mxGeometry width="50" height="50" relative="1" as="geometry">
            <mxPoint x="-545" y="510" as="sourcePoint" />
            <mxPoint x="-495" y="460" as="targetPoint" />
          </mxGeometry>
        </mxCell>
        <mxCell id="C2N_jpq54dSIksbOcnpH-5" value="" style="endArrow=none;html=1;rounded=0;" parent="1" edge="1">
          <mxGeometry width="50" height="50" relative="1" as="geometry">
            <mxPoint x="-545" y="510" as="sourcePoint" />
            <mxPoint x="-545" y="180" as="targetPoint" />
          </mxGeometry>
        </mxCell>
        <mxCell id="C2N_jpq54dSIksbOcnpH-6" value="" style="endArrow=none;html=1;rounded=0;" parent="1" source="C2N_jpq54dSIksbOcnpH-9" edge="1">
          <mxGeometry width="50" height="50" relative="1" as="geometry">
            <mxPoint x="-465" y="510" as="sourcePoint" />
            <mxPoint x="-465" y="110" as="targetPoint" />
          </mxGeometry>
        </mxCell>
        <mxCell id="C2N_jpq54dSIksbOcnpH-10" value="" style="endArrow=none;html=1;rounded=0;" parent="1" target="C2N_jpq54dSIksbOcnpH-9" edge="1">
          <mxGeometry width="50" height="50" relative="1" as="geometry">
            <mxPoint x="-465" y="510" as="sourcePoint" />
            <mxPoint x="-465" y="110" as="targetPoint" />
          </mxGeometry>
        </mxCell>
        <mxCell id="C2N_jpq54dSIksbOcnpH-9" value="DOOR&lt;div&gt;&amp;nbsp;&lt;/div&gt;" style="whiteSpace=wrap;html=1;textDirection=vertical-rl;rounded=0;" parent="1" vertex="1">
          <mxGeometry x="-485" y="255" width="40" height="110" as="geometry" />
        </mxCell>
        <mxCell id="tabiRLwtRzqliQ1mIiWP-1" value="" style="ellipse;whiteSpace=wrap;html=1;aspect=fixed;rounded=0;" parent="1" vertex="1">
          <mxGeometry x="-325" y="150" width="40" height="40" as="geometry" />
        </mxCell>
        <mxCell id="tabiRLwtRzqliQ1mIiWP-2" value="" style="ellipse;whiteSpace=wrap;html=1;aspect=fixed;rounded=0;" parent="1" vertex="1">
          <mxGeometry x="-205" y="150" width="40" height="40" as="geometry" />
        </mxCell>
        <mxCell id="tabiRLwtRzqliQ1mIiWP-3" value="" style="ellipse;whiteSpace=wrap;html=1;aspect=fixed;rounded=0;" parent="1" vertex="1">
          <mxGeometry x="-85" y="150" width="40" height="40" as="geometry" />
        </mxCell>
        <mxCell id="tabiRLwtRzqliQ1mIiWP-4" value="Handgun&lt;span style=&quot;color: rgba(0, 0, 0, 0); font-family: monospace; font-size: 0px; text-align: start; text-wrap-mode: nowrap;&quot;&gt;%3CmxGraphModel%3E%3Croot%3E%3CmxCell%20id%3D%220%22%2F%3E%3CmxCell%20id%3D%221%22%20parent%3D%220%22%2F%3E%3CmxCell%20id%3D%222%22%20value%3D%22%22%20style%3D%22ellipse%3BwhiteSpace%3Dwrap%3Bhtml%3D1%3Baspect%3Dfixed%3B%22%20vertex%3D%221%22%20parent%3D%221%22%3E%3CmxGeometry%20x%3D%22280%22%20y%3D%2280%22%20width%3D%2240%22%20height%3D%2240%22%20as%3D%22geometry%22%2F%3E%3C%2FmxCell%3E%3C%2Froot%3E%3C%2FmxGraphModel%3E&lt;/span&gt;" style="text;html=1;align=center;verticalAlign=middle;whiteSpace=wrap;rounded=0;" parent="1" vertex="1">
          <mxGeometry x="-335" y="200" width="60" height="30" as="geometry" />
        </mxCell>
        <mxCell id="tabiRLwtRzqliQ1mIiWP-5" value="Assualt Rifle" style="text;html=1;align=center;verticalAlign=middle;whiteSpace=wrap;rounded=0;" parent="1" vertex="1">
          <mxGeometry x="-215" y="200" width="60" height="30" as="geometry" />
        </mxCell>
        <mxCell id="tabiRLwtRzqliQ1mIiWP-6" value="Melee Weapon" style="text;html=1;align=center;verticalAlign=middle;whiteSpace=wrap;rounded=0;" parent="1" vertex="1">
          <mxGeometry x="-95" y="200" width="60" height="30" as="geometry" />
        </mxCell>
        <mxCell id="7q4dAaEzFGY37Xp3p4Tz-1" style="edgeStyle=orthogonalEdgeStyle;rounded=0;orthogonalLoop=1;jettySize=auto;html=1;exitX=0.5;exitY=1;exitDx=0;exitDy=0;" parent="1" source="C2N_jpq54dSIksbOcnpH-9" target="C2N_jpq54dSIksbOcnpH-9" edge="1">
          <mxGeometry relative="1" as="geometry" />
        </mxCell>
        <mxCell id="E4qFbeiB4ODEOkEXqFHY-1" value="&lt;h1 style=&quot;margin-top: 0px;&quot;&gt;&lt;span style=&quot;background-color: transparent; color: light-dark(rgb(0, 0, 0), rgb(255, 255, 255));&quot;&gt;UI&lt;/span&gt;&lt;/h1&gt;" style="text;html=1;whiteSpace=wrap;overflow=hidden;rounded=0;align=center;" parent="1" vertex="1">
          <mxGeometry x="15" y="550" width="180" height="40" as="geometry" />
        </mxCell>
        <mxCell id="E4qFbeiB4ODEOkEXqFHY-2" value="" style="rounded=0;whiteSpace=wrap;html=1;" parent="1" vertex="1">
          <mxGeometry x="95" y="590" width="360" height="240" as="geometry" />
        </mxCell>
        <mxCell id="E4qFbeiB4ODEOkEXqFHY-3" value="" style="rounded=0;whiteSpace=wrap;html=1;" parent="1" vertex="1">
          <mxGeometry x="105" y="600" width="120" height="10" as="geometry" />
        </mxCell>
        <mxCell id="E4qFbeiB4ODEOkEXqFHY-4" value="" style="rounded=0;whiteSpace=wrap;html=1;fillColor=#60a917;fontColor=#ffffff;strokeColor=none;movable=1;resizable=1;rotatable=1;deletable=1;editable=1;locked=0;connectable=1;" parent="1" vertex="1">
          <mxGeometry x="106" y="601" width="87" height="8" as="geometry" />
        </mxCell>
        <mxCell id="E4qFbeiB4ODEOkEXqFHY-5" value="" style="ellipse;whiteSpace=wrap;html=1;aspect=fixed;strokeWidth=4;" parent="1" vertex="1">
          <mxGeometry x="110" y="793" width="30" height="30" as="geometry" />
        </mxCell>
        <mxCell id="E4qFbeiB4ODEOkEXqFHY-7" value="&lt;font face=&quot;Tahoma&quot;&gt;8.2&lt;/font&gt;" style="text;html=1;align=center;verticalAlign=middle;whiteSpace=wrap;rounded=0;" parent="1" vertex="1">
          <mxGeometry x="95" y="791" width="60" height="30" as="geometry" />
        </mxCell>
        <mxCell id="E4qFbeiB4ODEOkEXqFHY-8" value="minimap overlay" style="rounded=0;whiteSpace=wrap;html=1;" parent="1" vertex="1">
          <mxGeometry x="368" y="597" width="80" height="50" as="geometry" />
        </mxCell>
        <mxCell id="E4qFbeiB4ODEOkEXqFHY-9" value="" style="shape=flexArrow;endArrow=classic;html=1;rounded=0;width=5.714285714285714;endSize=3.095238095238095;endWidth=11.564625850340136;" parent="1" edge="1">
          <mxGeometry width="50" height="50" relative="1" as="geometry">
            <mxPoint x="45" y="805" as="sourcePoint" />
            <mxPoint x="95" y="805" as="targetPoint" />
          </mxGeometry>
        </mxCell>
        <mxCell id="E4qFbeiB4ODEOkEXqFHY-10" value="" style="shape=flexArrow;endArrow=classic;html=1;rounded=0;width=5.714285714285714;endSize=3.095238095238095;endWidth=11.564625850340136;" parent="1" edge="1">
          <mxGeometry width="50" height="50" relative="1" as="geometry">
            <mxPoint x="45" y="605" as="sourcePoint" />
            <mxPoint x="95" y="604.76" as="targetPoint" />
          </mxGeometry>
        </mxCell>
        <mxCell id="E4qFbeiB4ODEOkEXqFHY-11" value="&lt;div&gt;&lt;font style=&quot;font-size: 8px;&quot;&gt;Ability&amp;nbsp;&lt;/font&gt;&lt;span style=&quot;font-size: 8px; background-color: transparent; color: light-dark(rgb(0, 0, 0), rgb(255, 255, 255));&quot;&gt;Cooldown&lt;/span&gt;&lt;/div&gt;" style="text;html=1;align=center;verticalAlign=middle;whiteSpace=wrap;rounded=0;" parent="1" vertex="1">
          <mxGeometry x="-35" y="791" width="90" height="30" as="geometry" />
        </mxCell>
        <mxCell id="E4qFbeiB4ODEOkEXqFHY-12" value="&lt;div&gt;&lt;span style=&quot;font-size: 8px;&quot;&gt;Health bar&lt;/span&gt;&lt;/div&gt;" style="text;html=1;align=center;verticalAlign=middle;whiteSpace=wrap;rounded=0;" parent="1" vertex="1">
          <mxGeometry x="-35" y="588" width="90" height="30" as="geometry" />
        </mxCell>
        <mxCell id="E4qFbeiB4ODEOkEXqFHY-19" value="" style="whiteSpace=wrap;html=1;aspect=fixed;" parent="1" vertex="1">
          <mxGeometry x="105" y="617" width="23" height="23" as="geometry" />
        </mxCell>
        <mxCell id="E4qFbeiB4ODEOkEXqFHY-20" value="" style="whiteSpace=wrap;html=1;aspect=fixed;" parent="1" vertex="1">
          <mxGeometry x="138" y="617" width="23" height="23" as="geometry" />
        </mxCell>
        <mxCell id="E4qFbeiB4ODEOkEXqFHY-21" value="" style="whiteSpace=wrap;html=1;aspect=fixed;" parent="1" vertex="1">
          <mxGeometry x="172" y="617" width="23" height="23" as="geometry" />
        </mxCell>
        <mxCell id="E4qFbeiB4ODEOkEXqFHY-22" value="" style="shape=flexArrow;endArrow=classic;html=1;rounded=0;width=5.714285714285714;endSize=3.095238095238095;endWidth=11.564625850340136;" parent="1" edge="1">
          <mxGeometry width="50" height="50" relative="1" as="geometry">
            <mxPoint x="40" y="631.8" as="sourcePoint" />
            <mxPoint x="90" y="631.8" as="targetPoint" />
          </mxGeometry>
        </mxCell>
        <mxCell id="E4qFbeiB4ODEOkEXqFHY-23" value="&lt;span style=&quot;font-size: 8px;&quot;&gt;Level/Upgrades display&lt;/span&gt;" style="text;html=1;align=center;verticalAlign=middle;whiteSpace=wrap;rounded=0;" parent="1" vertex="1">
          <mxGeometry x="-55" y="617" width="90" height="30" as="geometry" />
        </mxCell>
        <mxCell id="E4qFbeiB4ODEOkEXqFHY-24" value="" style="triangle;whiteSpace=wrap;html=1;rotation=-90;strokeColor=none;" parent="1" vertex="1">
          <mxGeometry x="117.20000000000005" y="798.45" width="16.87" height="43" as="geometry" />
        </mxCell>
        <mxCell id="E4qFbeiB4ODEOkEXqFHY-25" value="&lt;div&gt;&lt;font style=&quot;font-size: 7px;&quot;&gt;player&lt;/font&gt;&lt;/div&gt;" style="shape=umlActor;verticalLabelPosition=bottom;verticalAlign=top;html=1;outlineConnect=0;rounded=0;" parent="1" vertex="1">
          <mxGeometry x="268.75" y="697.5" width="12.5" height="25" as="geometry" />
        </mxCell>
        <mxCell id="eXyDsj4oLJ770W_KGHtE-5" value="" style="endArrow=none;html=1;rounded=0;" parent="1" source="eXyDsj4oLJ770W_KGHtE-7" edge="1">
          <mxGeometry width="50" height="50" relative="1" as="geometry">
            <mxPoint x="94" y="510" as="sourcePoint" />
            <mxPoint x="94" y="110" as="targetPoint" />
          </mxGeometry>
        </mxCell>
        <mxCell id="eXyDsj4oLJ770W_KGHtE-6" value="" style="endArrow=none;html=1;rounded=0;" parent="1" target="eXyDsj4oLJ770W_KGHtE-7" edge="1">
          <mxGeometry width="50" height="50" relative="1" as="geometry">
            <mxPoint x="94" y="510" as="sourcePoint" />
            <mxPoint x="94" y="110" as="targetPoint" />
          </mxGeometry>
        </mxCell>
        <mxCell id="eXyDsj4oLJ770W_KGHtE-7" value="DOOR&lt;div&gt;&amp;nbsp;&lt;/div&gt;" style="whiteSpace=wrap;html=1;textDirection=vertical-rl;rounded=0;" parent="1" vertex="1">
          <mxGeometry x="74" y="255" width="40" height="110" as="geometry" />
        </mxCell>
        <mxCell id="q4_9x-0cVKSZLk66gTpS-5" value="" style="rhombus;whiteSpace=wrap;html=1;fillColor=light-dark(#FFFFFF,#CC0000);strokeColor=none;" parent="1" vertex="1">
          <mxGeometry x="355" y="230" width="40" height="40" as="geometry" />
        </mxCell>
        <mxCell id="q4_9x-0cVKSZLk66gTpS-6" value="Basic enemy" style="text;html=1;align=center;verticalAlign=middle;whiteSpace=wrap;rounded=0;" parent="1" vertex="1">
          <mxGeometry x="345" y="270" width="60" height="30" as="geometry" />
        </mxCell>
        <mxCell id="q4_9x-0cVKSZLk66gTpS-7" value="Level End Checkpoint" style="whiteSpace=wrap;html=1;textDirection=vertical-rl;rounded=0;" parent="1" vertex="1">
          <mxGeometry x="635" y="255" width="40" height="110" as="geometry" />
        </mxCell>
        <mxCell id="80Y661r_ULmCbY4gzf0H-1" style="edgeStyle=orthogonalEdgeStyle;rounded=0;orthogonalLoop=1;jettySize=auto;html=1;exitX=0.5;exitY=1;exitDx=0;exitDy=0;entryX=0.5;entryY=0;entryDx=0;entryDy=0;" edge="1" parent="1" target="80Y661r_ULmCbY4gzf0H-2">
          <mxGeometry relative="1" as="geometry">
            <mxPoint x="-305" y="910" as="sourcePoint" />
          </mxGeometry>
        </mxCell>
        <mxCell id="80Y661r_ULmCbY4gzf0H-2" value="On Update" style="rounded=0;whiteSpace=wrap;html=1;" vertex="1" parent="1">
          <mxGeometry x="-365" y="930" width="120" height="40" as="geometry" />
        </mxCell>
        <mxCell id="80Y661r_ULmCbY4gzf0H-3" style="edgeStyle=none;curved=1;rounded=0;orthogonalLoop=1;jettySize=auto;html=1;exitX=0.5;exitY=1;exitDx=0;exitDy=0;fontSize=12;startSize=8;endSize=8;" edge="1" parent="1" source="80Y661r_ULmCbY4gzf0H-4" target="80Y661r_ULmCbY4gzf0H-8">
          <mxGeometry relative="1" as="geometry" />
        </mxCell>
        <mxCell id="80Y661r_ULmCbY4gzf0H-4" value="&lt;div&gt;&lt;span style=&quot;background-color: transparent; color: light-dark(rgb(0, 0, 0), rgb(255, 255, 255));&quot;&gt;When Movement key is pressed&lt;/span&gt;&lt;/div&gt;" style="rhombus;whiteSpace=wrap;html=1;" vertex="1" parent="1">
          <mxGeometry x="-720" y="1030" width="190" height="80" as="geometry" />
        </mxCell>
        <mxCell id="80Y661r_ULmCbY4gzf0H-5" value="" style="endArrow=none;html=1;rounded=0;fontSize=12;startSize=8;endSize=8;curved=1;" edge="1" parent="1">
          <mxGeometry width="50" height="50" relative="1" as="geometry">
            <mxPoint x="-305" y="1010" as="sourcePoint" />
            <mxPoint x="-305" y="970" as="targetPoint" />
          </mxGeometry>
        </mxCell>
        <mxCell id="80Y661r_ULmCbY4gzf0H-6" value="" style="endArrow=none;html=1;rounded=0;fontSize=12;startSize=8;endSize=8;curved=1;" edge="1" parent="1">
          <mxGeometry width="50" height="50" relative="1" as="geometry">
            <mxPoint x="-305" y="1010" as="sourcePoint" />
            <mxPoint x="-625" y="1010" as="targetPoint" />
          </mxGeometry>
        </mxCell>
        <mxCell id="80Y661r_ULmCbY4gzf0H-7" value="" style="endArrow=classic;html=1;rounded=0;fontSize=12;startSize=8;endSize=8;curved=1;entryX=0.5;entryY=0;entryDx=0;entryDy=0;" edge="1" parent="1" target="80Y661r_ULmCbY4gzf0H-4">
          <mxGeometry width="50" height="50" relative="1" as="geometry">
            <mxPoint x="-625" y="1010" as="sourcePoint" />
            <mxPoint x="-675" y="1020" as="targetPoint" />
          </mxGeometry>
        </mxCell>
        <mxCell id="80Y661r_ULmCbY4gzf0H-8" value="Move the player in that direction" style="rounded=0;whiteSpace=wrap;html=1;" vertex="1" parent="1">
          <mxGeometry x="-685" y="1170" width="120" height="60" as="geometry" />
        </mxCell>
        <mxCell id="80Y661r_ULmCbY4gzf0H-9" value="" style="endArrow=classic;html=1;rounded=0;fontSize=12;startSize=8;endSize=8;curved=1;" edge="1" parent="1">
          <mxGeometry width="50" height="50" relative="1" as="geometry">
            <mxPoint x="-425" y="1010" as="sourcePoint" />
            <mxPoint x="-425" y="1030" as="targetPoint" />
          </mxGeometry>
        </mxCell>
        <mxCell id="80Y661r_ULmCbY4gzf0H-10" value="" style="edgeStyle=none;curved=1;rounded=0;orthogonalLoop=1;jettySize=auto;html=1;fontSize=12;startSize=8;endSize=8;" edge="1" parent="1" source="80Y661r_ULmCbY4gzf0H-11" target="80Y661r_ULmCbY4gzf0H-16">
          <mxGeometry relative="1" as="geometry" />
        </mxCell>
        <mxCell id="80Y661r_ULmCbY4gzf0H-11" value="When interact with weapon" style="rhombus;whiteSpace=wrap;html=1;" vertex="1" parent="1">
          <mxGeometry x="-305" y="1030" width="160" height="80" as="geometry" />
        </mxCell>
        <mxCell id="80Y661r_ULmCbY4gzf0H-12" value="" style="endArrow=none;html=1;rounded=0;fontSize=12;startSize=8;endSize=8;curved=1;" edge="1" parent="1">
          <mxGeometry width="50" height="50" relative="1" as="geometry">
            <mxPoint x="-305" y="1010" as="sourcePoint" />
            <mxPoint x="2080" y="1010" as="targetPoint" />
          </mxGeometry>
        </mxCell>
        <mxCell id="80Y661r_ULmCbY4gzf0H-13" value="" style="endArrow=classic;html=1;rounded=0;fontSize=12;startSize=8;endSize=8;curved=1;" edge="1" parent="1">
          <mxGeometry width="50" height="50" relative="1" as="geometry">
            <mxPoint x="-225.11" y="1010" as="sourcePoint" />
            <mxPoint x="-225.11" y="1030" as="targetPoint" />
          </mxGeometry>
        </mxCell>
        <mxCell id="80Y661r_ULmCbY4gzf0H-14" style="edgeStyle=orthogonalEdgeStyle;rounded=0;orthogonalLoop=1;jettySize=auto;html=1;exitX=1;exitY=0.5;exitDx=0;exitDy=0;" edge="1" parent="1">
          <mxGeometry relative="1" as="geometry">
            <mxPoint x="-92.5" y="1200" as="targetPoint" />
            <mxPoint x="-172.5" y="1200" as="sourcePoint" />
          </mxGeometry>
        </mxCell>
        <mxCell id="80Y661r_ULmCbY4gzf0H-15" style="edgeStyle=orthogonalEdgeStyle;rounded=0;orthogonalLoop=1;jettySize=auto;html=1;exitX=0.5;exitY=1;exitDx=0;exitDy=0;" edge="1" parent="1" source="80Y661r_ULmCbY4gzf0H-16">
          <mxGeometry relative="1" as="geometry">
            <mxPoint x="-225" y="1290" as="targetPoint" />
          </mxGeometry>
        </mxCell>
        <mxCell id="80Y661r_ULmCbY4gzf0H-16" value="Do player have a weapon&lt;div&gt;equipped already&lt;/div&gt;" style="rhombus;whiteSpace=wrap;html=1;" vertex="1" parent="1">
          <mxGeometry x="-305" y="1160" width="160" height="80" as="geometry" />
        </mxCell>
        <mxCell id="80Y661r_ULmCbY4gzf0H-17" value="Equip Weapon&amp;nbsp;" style="rounded=0;whiteSpace=wrap;html=1;" vertex="1" parent="1">
          <mxGeometry x="-92.5" y="1170" width="120" height="60" as="geometry" />
        </mxCell>
        <mxCell id="80Y661r_ULmCbY4gzf0H-18" value="Swap Weapons" style="rounded=0;whiteSpace=wrap;html=1;" vertex="1" parent="1">
          <mxGeometry x="-285" y="1290" width="120" height="60" as="geometry" />
        </mxCell>
        <mxCell id="80Y661r_ULmCbY4gzf0H-19" value="" style="endArrow=classic;html=1;rounded=0;fontSize=12;startSize=8;endSize=8;curved=1;" edge="1" parent="1">
          <mxGeometry width="50" height="50" relative="1" as="geometry">
            <mxPoint x="164.60000000000002" y="1010" as="sourcePoint" />
            <mxPoint x="164.60000000000002" y="1030" as="targetPoint" />
          </mxGeometry>
        </mxCell>
        <mxCell id="80Y661r_ULmCbY4gzf0H-20" style="edgeStyle=orthogonalEdgeStyle;rounded=0;orthogonalLoop=1;jettySize=auto;html=1;exitX=0.5;exitY=1;exitDx=0;exitDy=0;entryX=0.5;entryY=0;entryDx=0;entryDy=0;" edge="1" parent="1" source="80Y661r_ULmCbY4gzf0H-21">
          <mxGeometry relative="1" as="geometry">
            <mxPoint x="165" y="1170" as="targetPoint" />
          </mxGeometry>
        </mxCell>
        <mxCell id="80Y661r_ULmCbY4gzf0H-21" value="When Attack key is pressed" style="rhombus;whiteSpace=wrap;html=1;" vertex="1" parent="1">
          <mxGeometry x="95" y="1030" width="140" height="80" as="geometry" />
        </mxCell>
        <mxCell id="80Y661r_ULmCbY4gzf0H-22" style="edgeStyle=orthogonalEdgeStyle;rounded=0;orthogonalLoop=1;jettySize=auto;html=1;exitX=0.5;exitY=1;exitDx=0;exitDy=0;" edge="1" parent="1" source="80Y661r_ULmCbY4gzf0H-24">
          <mxGeometry relative="1" as="geometry">
            <mxPoint x="55" y="1320" as="targetPoint" />
            <mxPoint x="165" y="1290" as="sourcePoint" />
          </mxGeometry>
        </mxCell>
        <mxCell id="80Y661r_ULmCbY4gzf0H-23" value="" style="edgeStyle=orthogonalEdgeStyle;rounded=0;orthogonalLoop=1;jettySize=auto;html=1;" edge="1" parent="1" source="80Y661r_ULmCbY4gzf0H-24" target="80Y661r_ULmCbY4gzf0H-26">
          <mxGeometry relative="1" as="geometry" />
        </mxCell>
        <mxCell id="80Y661r_ULmCbY4gzf0H-24" value="Is equipped weapon type&lt;div&gt;&amp;nbsp;projectile or melee&lt;/div&gt;" style="rhombus;whiteSpace=wrap;html=1;rounded=0;" vertex="1" parent="1">
          <mxGeometry x="75" y="1170" width="180" height="80" as="geometry" />
        </mxCell>
        <mxCell id="80Y661r_ULmCbY4gzf0H-25" value="" style="edgeStyle=orthogonalEdgeStyle;rounded=0;orthogonalLoop=1;jettySize=auto;html=1;" edge="1" parent="1" source="80Y661r_ULmCbY4gzf0H-26" target="80Y661r_ULmCbY4gzf0H-35">
          <mxGeometry relative="1" as="geometry" />
        </mxCell>
        <mxCell id="80Y661r_ULmCbY4gzf0H-26" value="If melee, create a slashing object with damage stats from weapon, when enemy touch&amp;nbsp;" style="whiteSpace=wrap;html=1;rounded=0;" vertex="1" parent="1">
          <mxGeometry x="198" y="1320" width="170" height="50" as="geometry" />
        </mxCell>
        <mxCell id="80Y661r_ULmCbY4gzf0H-27" value="" style="edgeStyle=orthogonalEdgeStyle;rounded=0;orthogonalLoop=1;jettySize=auto;html=1;" edge="1" parent="1" source="80Y661r_ULmCbY4gzf0H-28" target="80Y661r_ULmCbY4gzf0H-32">
          <mxGeometry relative="1" as="geometry" />
        </mxCell>
        <mxCell id="80Y661r_ULmCbY4gzf0H-28" value="If Projectile, create a projectile with speed stats and damage stats from weapon&amp;nbsp;" style="rounded=0;whiteSpace=wrap;html=1;" vertex="1" parent="1">
          <mxGeometry x="-5" y="1320" width="120" height="60" as="geometry" />
        </mxCell>
        <mxCell id="80Y661r_ULmCbY4gzf0H-29" style="edgeStyle=orthogonalEdgeStyle;rounded=0;orthogonalLoop=1;jettySize=auto;html=1;exitX=0.5;exitY=1;exitDx=0;exitDy=0;" edge="1" parent="1" source="80Y661r_ULmCbY4gzf0H-26" target="80Y661r_ULmCbY4gzf0H-26">
          <mxGeometry relative="1" as="geometry" />
        </mxCell>
        <mxCell id="80Y661r_ULmCbY4gzf0H-30" value="" style="edgeStyle=orthogonalEdgeStyle;rounded=0;orthogonalLoop=1;jettySize=auto;html=1;" edge="1" parent="1" source="80Y661r_ULmCbY4gzf0H-32" target="80Y661r_ULmCbY4gzf0H-33">
          <mxGeometry relative="1" as="geometry" />
        </mxCell>
        <mxCell id="80Y661r_ULmCbY4gzf0H-31" value="" style="edgeStyle=orthogonalEdgeStyle;rounded=0;orthogonalLoop=1;jettySize=auto;html=1;exitX=1;exitY=0.5;exitDx=0;exitDy=0;" edge="1" parent="1" source="80Y661r_ULmCbY4gzf0H-32" target="80Y661r_ULmCbY4gzf0H-34">
          <mxGeometry relative="1" as="geometry" />
        </mxCell>
        <mxCell id="80Y661r_ULmCbY4gzf0H-32" value="Did the projectile hit&lt;div&gt;the enemy before a set time&lt;/div&gt;" style="rhombus;whiteSpace=wrap;html=1;rounded=0;" vertex="1" parent="1">
          <mxGeometry x="-45" y="1410" width="200" height="90" as="geometry" />
        </mxCell>
        <mxCell id="80Y661r_ULmCbY4gzf0H-33" value="Delt damage to enemy health point. Delete projectile" style="whiteSpace=wrap;html=1;rounded=0;" vertex="1" parent="1">
          <mxGeometry x="-6" y="1540" width="120" height="60" as="geometry" />
        </mxCell>
        <mxCell id="80Y661r_ULmCbY4gzf0H-34" value="Delete Projectile" style="whiteSpace=wrap;html=1;rounded=0;" vertex="1" parent="1">
          <mxGeometry x="148.75" y="1520" width="120" height="60" as="geometry" />
        </mxCell>
        <mxCell id="80Y661r_ULmCbY4gzf0H-35" value="Deal damage to enemy according with weapon damage stats" style="whiteSpace=wrap;html=1;rounded=0;" vertex="1" parent="1">
          <mxGeometry x="305" y="1470" width="120" height="60" as="geometry" />
        </mxCell>
        <mxCell id="80Y661r_ULmCbY4gzf0H-36" value="" style="endArrow=classic;html=1;rounded=0;fontSize=12;startSize=8;endSize=8;curved=1;" edge="1" parent="1">
          <mxGeometry width="50" height="50" relative="1" as="geometry">
            <mxPoint x="446.4100000000001" y="1010" as="sourcePoint" />
            <mxPoint x="446.4100000000001" y="1030" as="targetPoint" />
          </mxGeometry>
        </mxCell>
        <mxCell id="80Y661r_ULmCbY4gzf0H-37" value="" style="edgeStyle=orthogonalEdgeStyle;rounded=0;orthogonalLoop=1;jettySize=auto;html=1;" edge="1" parent="1" source="80Y661r_ULmCbY4gzf0H-38" target="80Y661r_ULmCbY4gzf0H-39">
          <mxGeometry relative="1" as="geometry" />
        </mxCell>
        <mxCell id="80Y661r_ULmCbY4gzf0H-38" value="When player collides with enemy attack" style="rhombus;whiteSpace=wrap;html=1;" vertex="1" parent="1">
          <mxGeometry x="325" y="1030" width="245" height="90" as="geometry" />
        </mxCell>
        <mxCell id="80Y661r_ULmCbY4gzf0H-39" value="Reduce Player&#39;s HP based on attack damage" style="whiteSpace=wrap;html=1;" vertex="1" parent="1">
          <mxGeometry x="387" y="1170" width="120" height="60" as="geometry" />
        </mxCell>
        <mxCell id="80Y661r_ULmCbY4gzf0H-40" value="" style="endArrow=classic;html=1;rounded=0;fontSize=12;startSize=8;endSize=8;curved=1;" edge="1" parent="1">
          <mxGeometry width="50" height="50" relative="1" as="geometry">
            <mxPoint x="736.4100000000001" y="1010" as="sourcePoint" />
            <mxPoint x="736.4100000000001" y="1030" as="targetPoint" />
          </mxGeometry>
        </mxCell>
        <mxCell id="80Y661r_ULmCbY4gzf0H-41" value="" style="edgeStyle=orthogonalEdgeStyle;rounded=0;orthogonalLoop=1;jettySize=auto;html=1;" edge="1" parent="1" source="80Y661r_ULmCbY4gzf0H-42" target="80Y661r_ULmCbY4gzf0H-44">
          <mxGeometry relative="1" as="geometry" />
        </mxCell>
        <mxCell id="80Y661r_ULmCbY4gzf0H-42" value="When Player HP reach 0" style="rhombus;whiteSpace=wrap;html=1;" vertex="1" parent="1">
          <mxGeometry x="615" y="1030" width="245" height="90" as="geometry" />
        </mxCell>
        <mxCell id="80Y661r_ULmCbY4gzf0H-43" value="" style="edgeStyle=orthogonalEdgeStyle;rounded=0;orthogonalLoop=1;jettySize=auto;html=1;" edge="1" parent="1" source="80Y661r_ULmCbY4gzf0H-44" target="80Y661r_ULmCbY4gzf0H-45">
          <mxGeometry relative="1" as="geometry" />
        </mxCell>
        <mxCell id="80Y661r_ULmCbY4gzf0H-44" value="Play death animation" style="whiteSpace=wrap;html=1;" vertex="1" parent="1">
          <mxGeometry x="677.5" y="1170" width="120" height="60" as="geometry" />
        </mxCell>
        <mxCell id="80Y661r_ULmCbY4gzf0H-45" value="Bring player to most recent checkpoint(spawn point if there is none)" style="whiteSpace=wrap;html=1;" vertex="1" parent="1">
          <mxGeometry x="661.25" y="1310" width="152.5" height="60" as="geometry" />
        </mxCell>
        <mxCell id="80Y661r_ULmCbY4gzf0H-46" value="" style="endArrow=classic;html=1;rounded=0;fontSize=12;startSize=8;endSize=8;curved=1;" edge="1" parent="1">
          <mxGeometry width="50" height="50" relative="1" as="geometry">
            <mxPoint x="1016.4100000000001" y="1010" as="sourcePoint" />
            <mxPoint x="1016.4100000000001" y="1030" as="targetPoint" />
          </mxGeometry>
        </mxCell>
        <mxCell id="80Y661r_ULmCbY4gzf0H-47" value="" style="edgeStyle=orthogonalEdgeStyle;rounded=0;orthogonalLoop=1;jettySize=auto;html=1;" edge="1" parent="1" source="80Y661r_ULmCbY4gzf0H-48" target="80Y661r_ULmCbY4gzf0H-49">
          <mxGeometry relative="1" as="geometry" />
        </mxCell>
        <mxCell id="80Y661r_ULmCbY4gzf0H-48" value="When player touch&lt;div&gt;end checkpoint&lt;/div&gt;" style="rhombus;whiteSpace=wrap;html=1;" vertex="1" parent="1">
          <mxGeometry x="895" y="1030" width="245" height="90" as="geometry" />
        </mxCell>
        <mxCell id="80Y661r_ULmCbY4gzf0H-49" value="Bring to next level" style="whiteSpace=wrap;html=1;" vertex="1" parent="1">
          <mxGeometry x="957.5" y="1170" width="120" height="60" as="geometry" />
        </mxCell>
        <mxCell id="80Y661r_ULmCbY4gzf0H-50" value="" style="endArrow=classic;html=1;rounded=0;fontSize=12;startSize=8;endSize=8;curved=1;" edge="1" parent="1">
          <mxGeometry width="50" height="50" relative="1" as="geometry">
            <mxPoint x="1321.41" y="1010" as="sourcePoint" />
            <mxPoint x="1321.41" y="1030" as="targetPoint" />
          </mxGeometry>
        </mxCell>
        <mxCell id="80Y661r_ULmCbY4gzf0H-51" value="" style="edgeStyle=orthogonalEdgeStyle;rounded=0;orthogonalLoop=1;jettySize=auto;html=1;" edge="1" parent="1" source="80Y661r_ULmCbY4gzf0H-53" target="80Y661r_ULmCbY4gzf0H-54">
          <mxGeometry relative="1" as="geometry" />
        </mxCell>
        <mxCell id="80Y661r_ULmCbY4gzf0H-52" value="" style="edgeStyle=orthogonalEdgeStyle;rounded=0;orthogonalLoop=1;jettySize=auto;html=1;" edge="1" parent="1" source="80Y661r_ULmCbY4gzf0H-53" target="80Y661r_ULmCbY4gzf0H-55">
          <mxGeometry relative="1" as="geometry" />
        </mxCell>
        <mxCell id="80Y661r_ULmCbY4gzf0H-53" value="When an enemy is defeated" style="rhombus;whiteSpace=wrap;html=1;" vertex="1" parent="1">
          <mxGeometry x="1200" y="1030" width="245" height="90" as="geometry" />
        </mxCell>
        <mxCell id="80Y661r_ULmCbY4gzf0H-54" value="Give player 100 coins" style="whiteSpace=wrap;html=1;" vertex="1" parent="1">
          <mxGeometry x="1120" y="1240" width="120" height="60" as="geometry" />
        </mxCell>
        <mxCell id="80Y661r_ULmCbY4gzf0H-55" value="Give player 250 coins" style="whiteSpace=wrap;html=1;" vertex="1" parent="1">
          <mxGeometry x="1410" y="1240" width="120" height="60" as="geometry" />
        </mxCell>
        <mxCell id="80Y661r_ULmCbY4gzf0H-56" value="Normal" style="text;html=1;align=center;verticalAlign=middle;whiteSpace=wrap;rounded=0;" vertex="1" parent="1">
          <mxGeometry x="1170" y="1195" width="60" height="30" as="geometry" />
        </mxCell>
        <mxCell id="80Y661r_ULmCbY4gzf0H-57" value="Boss" style="text;html=1;align=center;verticalAlign=middle;whiteSpace=wrap;rounded=0;" vertex="1" parent="1">
          <mxGeometry x="1460" y="1195" width="60" height="30" as="geometry" />
        </mxCell>
        <mxCell id="80Y661r_ULmCbY4gzf0H-58" value="" style="endArrow=classic;html=1;rounded=0;fontSize=12;startSize=8;endSize=8;curved=1;" edge="1" parent="1">
          <mxGeometry width="50" height="50" relative="1" as="geometry">
            <mxPoint x="1701.41" y="1010" as="sourcePoint" />
            <mxPoint x="1701.41" y="1030" as="targetPoint" />
          </mxGeometry>
        </mxCell>
        <mxCell id="80Y661r_ULmCbY4gzf0H-59" value="" style="edgeStyle=orthogonalEdgeStyle;rounded=0;orthogonalLoop=1;jettySize=auto;html=1;" edge="1" parent="1" source="80Y661r_ULmCbY4gzf0H-60" target="80Y661r_ULmCbY4gzf0H-62">
          <mxGeometry relative="1" as="geometry" />
        </mxCell>
        <mxCell id="80Y661r_ULmCbY4gzf0H-60" value="When player press RMB (Dodge)" style="rhombus;whiteSpace=wrap;html=1;" vertex="1" parent="1">
          <mxGeometry x="1580" y="1030" width="245" height="90" as="geometry" />
        </mxCell>
        <mxCell id="80Y661r_ULmCbY4gzf0H-61" value="" style="edgeStyle=orthogonalEdgeStyle;rounded=0;orthogonalLoop=1;jettySize=auto;html=1;" edge="1" parent="1" source="80Y661r_ULmCbY4gzf0H-62" target="80Y661r_ULmCbY4gzf0H-148">
          <mxGeometry relative="1" as="geometry" />
        </mxCell>
        <mxCell id="80Y661r_ULmCbY4gzf0H-62" value="Players perform a dash towards the direction they are currently facing" style="whiteSpace=wrap;html=1;" vertex="1" parent="1">
          <mxGeometry x="1642.5" y="1160" width="120" height="60" as="geometry" />
        </mxCell>
        <mxCell id="80Y661r_ULmCbY4gzf0H-63" value="" style="endArrow=classic;html=1;rounded=0;fontSize=12;startSize=8;endSize=8;curved=1;" edge="1" parent="1">
          <mxGeometry width="50" height="50" relative="1" as="geometry">
            <mxPoint x="2079.41" y="1010" as="sourcePoint" />
            <mxPoint x="2079.41" y="1030" as="targetPoint" />
          </mxGeometry>
        </mxCell>
        <mxCell id="80Y661r_ULmCbY4gzf0H-64" value="" style="edgeStyle=orthogonalEdgeStyle;rounded=0;orthogonalLoop=1;jettySize=auto;html=1;" edge="1" parent="1" source="80Y661r_ULmCbY4gzf0H-65" target="80Y661r_ULmCbY4gzf0H-69">
          <mxGeometry relative="1" as="geometry" />
        </mxCell>
        <mxCell id="80Y661r_ULmCbY4gzf0H-65" value="When player press ability weapon" style="rhombus;whiteSpace=wrap;html=1;" vertex="1" parent="1">
          <mxGeometry x="1958" y="1030" width="245" height="90" as="geometry" />
        </mxCell>
        <mxCell id="80Y661r_ULmCbY4gzf0H-66" value="" style="edgeStyle=orthogonalEdgeStyle;rounded=0;orthogonalLoop=1;jettySize=auto;html=1;" edge="1" parent="1" source="80Y661r_ULmCbY4gzf0H-69" target="80Y661r_ULmCbY4gzf0H-71">
          <mxGeometry relative="1" as="geometry" />
        </mxCell>
        <mxCell id="80Y661r_ULmCbY4gzf0H-67" value="" style="edgeStyle=orthogonalEdgeStyle;rounded=0;orthogonalLoop=1;jettySize=auto;html=1;" edge="1" parent="1" source="80Y661r_ULmCbY4gzf0H-69" target="80Y661r_ULmCbY4gzf0H-73">
          <mxGeometry relative="1" as="geometry" />
        </mxCell>
        <mxCell id="80Y661r_ULmCbY4gzf0H-68" value="" style="edgeStyle=orthogonalEdgeStyle;rounded=0;orthogonalLoop=1;jettySize=auto;html=1;" edge="1" parent="1" source="80Y661r_ULmCbY4gzf0H-69" target="80Y661r_ULmCbY4gzf0H-75">
          <mxGeometry relative="1" as="geometry" />
        </mxCell>
        <mxCell id="80Y661r_ULmCbY4gzf0H-69" value="Check current weapon type" style="rhombus;whiteSpace=wrap;html=1;" vertex="1" parent="1">
          <mxGeometry x="1958" y="1180" width="245" height="91" as="geometry" />
        </mxCell>
        <mxCell id="80Y661r_ULmCbY4gzf0H-70" value="" style="edgeStyle=orthogonalEdgeStyle;rounded=0;orthogonalLoop=1;jettySize=auto;html=1;" edge="1" parent="1" source="80Y661r_ULmCbY4gzf0H-71" target="80Y661r_ULmCbY4gzf0H-80">
          <mxGeometry relative="1" as="geometry" />
        </mxCell>
        <mxCell id="80Y661r_ULmCbY4gzf0H-71" value="Increase fire speed for X amount of sec" style="whiteSpace=wrap;html=1;" vertex="1" parent="1">
          <mxGeometry x="1860" y="1410" width="120" height="60" as="geometry" />
        </mxCell>
        <mxCell id="80Y661r_ULmCbY4gzf0H-72" value="" style="edgeStyle=orthogonalEdgeStyle;rounded=0;orthogonalLoop=1;jettySize=auto;html=1;" edge="1" parent="1" source="80Y661r_ULmCbY4gzf0H-73">
          <mxGeometry relative="1" as="geometry">
            <mxPoint x="2080.5" y="1550" as="targetPoint" />
          </mxGeometry>
        </mxCell>
        <mxCell id="80Y661r_ULmCbY4gzf0H-73" value="Reduce reload speed for X amount of sec" style="whiteSpace=wrap;html=1;" vertex="1" parent="1">
          <mxGeometry x="2020.5" y="1410" width="120" height="60" as="geometry" />
        </mxCell>
        <mxCell id="80Y661r_ULmCbY4gzf0H-74" value="" style="edgeStyle=orthogonalEdgeStyle;rounded=0;orthogonalLoop=1;jettySize=auto;html=1;" edge="1" parent="1" source="80Y661r_ULmCbY4gzf0H-75">
          <mxGeometry relative="1" as="geometry">
            <mxPoint x="2240.000000000001" y="1550" as="targetPoint" />
          </mxGeometry>
        </mxCell>
        <mxCell id="80Y661r_ULmCbY4gzf0H-75" value="Increase damage and range of weapon for X amount of sec" style="whiteSpace=wrap;html=1;" vertex="1" parent="1">
          <mxGeometry x="2180" y="1410" width="120" height="60" as="geometry" />
        </mxCell>
        <mxCell id="80Y661r_ULmCbY4gzf0H-76" value="Handgun" style="text;html=1;align=center;verticalAlign=middle;whiteSpace=wrap;rounded=0;" vertex="1" parent="1">
          <mxGeometry x="1920" y="1360" width="60" height="30" as="geometry" />
        </mxCell>
        <mxCell id="80Y661r_ULmCbY4gzf0H-77" value="AR" style="text;html=1;align=center;verticalAlign=middle;whiteSpace=wrap;rounded=0;" vertex="1" parent="1">
          <mxGeometry x="2065" y="1360" width="60" height="30" as="geometry" />
        </mxCell>
        <mxCell id="80Y661r_ULmCbY4gzf0H-78" value="Melee" style="text;html=1;align=center;verticalAlign=middle;whiteSpace=wrap;rounded=0;" vertex="1" parent="1">
          <mxGeometry x="2230" y="1360" width="60" height="30" as="geometry" />
        </mxCell>
        <mxCell id="80Y661r_ULmCbY4gzf0H-79" value="" style="edgeStyle=orthogonalEdgeStyle;rounded=0;orthogonalLoop=1;jettySize=auto;html=1;" edge="1" parent="1" source="80Y661r_ULmCbY4gzf0H-80" target="80Y661r_ULmCbY4gzf0H-149">
          <mxGeometry relative="1" as="geometry" />
        </mxCell>
        <mxCell id="80Y661r_ULmCbY4gzf0H-80" value="Start Cooldown Timer for X amount of sec" style="whiteSpace=wrap;html=1;" vertex="1" parent="1">
          <mxGeometry x="1860" y="1550" width="120" height="60" as="geometry" />
        </mxCell>
        <mxCell id="80Y661r_ULmCbY4gzf0H-81" value="Start Cooldown Timer for X amount of sec" style="whiteSpace=wrap;html=1;" vertex="1" parent="1">
          <mxGeometry x="2020.5" y="1550" width="120" height="60" as="geometry" />
        </mxCell>
        <mxCell id="80Y661r_ULmCbY4gzf0H-82" value="Start Cooldown Timer for X amount of sec" style="whiteSpace=wrap;html=1;" vertex="1" parent="1">
          <mxGeometry x="2180" y="1550" width="120" height="60" as="geometry" />
        </mxCell>
        <mxCell id="80Y661r_ULmCbY4gzf0H-83" value="" style="endArrow=none;html=1;rounded=0;fontSize=12;startSize=8;endSize=8;curved=1;" edge="1" parent="1">
          <mxGeometry width="50" height="50" relative="1" as="geometry">
            <mxPoint x="-305" y="1009" as="sourcePoint" />
            <mxPoint x="2683" y="1009" as="targetPoint" />
          </mxGeometry>
        </mxCell>
        <mxCell id="80Y661r_ULmCbY4gzf0H-84" value="" style="endArrow=none;html=1;rounded=0;fontSize=12;startSize=8;endSize=8;curved=1;" edge="1" parent="1">
          <mxGeometry width="50" height="50" relative="1" as="geometry">
            <mxPoint x="-305" y="1010" as="sourcePoint" />
            <mxPoint x="3749.793103448276" y="1009" as="targetPoint" />
          </mxGeometry>
        </mxCell>
        <mxCell id="80Y661r_ULmCbY4gzf0H-85" value="" style="endArrow=classic;html=1;rounded=0;fontSize=12;startSize=8;endSize=8;curved=1;" edge="1" parent="1">
          <mxGeometry width="50" height="50" relative="1" as="geometry">
            <mxPoint x="2460.41" y="1010" as="sourcePoint" />
            <mxPoint x="2460.41" y="1030" as="targetPoint" />
          </mxGeometry>
        </mxCell>
        <mxCell id="80Y661r_ULmCbY4gzf0H-86" value="" style="edgeStyle=orthogonalEdgeStyle;rounded=0;orthogonalLoop=1;jettySize=auto;html=1;" edge="1" parent="1" source="80Y661r_ULmCbY4gzf0H-87" target="80Y661r_ULmCbY4gzf0H-89">
          <mxGeometry relative="1" as="geometry" />
        </mxCell>
        <mxCell id="80Y661r_ULmCbY4gzf0H-87" value="When player enters a new room" style="rhombus;whiteSpace=wrap;html=1;" vertex="1" parent="1">
          <mxGeometry x="2338" y="1030" width="245" height="90" as="geometry" />
        </mxCell>
        <mxCell id="80Y661r_ULmCbY4gzf0H-88" value="" style="edgeStyle=orthogonalEdgeStyle;rounded=0;orthogonalLoop=1;jettySize=auto;html=1;" edge="1" parent="1" source="80Y661r_ULmCbY4gzf0H-89" target="80Y661r_ULmCbY4gzf0H-91">
          <mxGeometry relative="1" as="geometry" />
        </mxCell>
        <mxCell id="80Y661r_ULmCbY4gzf0H-89" value="Force player to be in that room until all enemies are eliminated" style="whiteSpace=wrap;html=1;" vertex="1" parent="1">
          <mxGeometry x="2400.5" y="1140" width="120" height="60" as="geometry" />
        </mxCell>
        <mxCell id="80Y661r_ULmCbY4gzf0H-90" value="" style="edgeStyle=orthogonalEdgeStyle;rounded=0;orthogonalLoop=1;jettySize=auto;html=1;" edge="1" parent="1" source="80Y661r_ULmCbY4gzf0H-91" target="80Y661r_ULmCbY4gzf0H-124">
          <mxGeometry relative="1" as="geometry" />
        </mxCell>
        <mxCell id="80Y661r_ULmCbY4gzf0H-91" value="Door to the next room are unable to unlock till the prior requirements are fufilled" style="whiteSpace=wrap;html=1;" vertex="1" parent="1">
          <mxGeometry x="2395.25" y="1225" width="130.5" height="80" as="geometry" />
        </mxCell>
        <mxCell id="80Y661r_ULmCbY4gzf0H-92" value="" style="endArrow=classic;html=1;rounded=0;fontSize=12;startSize=8;endSize=8;curved=1;" edge="1" parent="1">
          <mxGeometry width="50" height="50" relative="1" as="geometry">
            <mxPoint x="2779.31" y="1010" as="sourcePoint" />
            <mxPoint x="2779.31" y="1030" as="targetPoint" />
          </mxGeometry>
        </mxCell>
        <mxCell id="80Y661r_ULmCbY4gzf0H-93" value="" style="edgeStyle=orthogonalEdgeStyle;rounded=0;orthogonalLoop=1;jettySize=auto;html=1;" edge="1" parent="1" source="80Y661r_ULmCbY4gzf0H-94" target="80Y661r_ULmCbY4gzf0H-96">
          <mxGeometry relative="1" as="geometry" />
        </mxCell>
        <mxCell id="80Y661r_ULmCbY4gzf0H-94" value="When the Escape key is pressed" style="rhombus;whiteSpace=wrap;html=1;" vertex="1" parent="1">
          <mxGeometry x="2657" y="1030" width="245" height="90" as="geometry" />
        </mxCell>
        <mxCell id="80Y661r_ULmCbY4gzf0H-95" value="" style="edgeStyle=orthogonalEdgeStyle;rounded=0;orthogonalLoop=1;jettySize=auto;html=1;" edge="1" parent="1" source="80Y661r_ULmCbY4gzf0H-96" target="80Y661r_ULmCbY4gzf0H-103">
          <mxGeometry relative="1" as="geometry" />
        </mxCell>
        <mxCell id="80Y661r_ULmCbY4gzf0H-96" value="freeze game&amp;nbsp;&amp;nbsp;" style="whiteSpace=wrap;html=1;" vertex="1" parent="1">
          <mxGeometry x="2719.5" y="1160" width="120" height="60" as="geometry" />
        </mxCell>
        <mxCell id="80Y661r_ULmCbY4gzf0H-97" value="" style="edgeStyle=orthogonalEdgeStyle;rounded=0;orthogonalLoop=1;jettySize=auto;html=1;" edge="1" parent="1" source="80Y661r_ULmCbY4gzf0H-103">
          <mxGeometry relative="1" as="geometry">
            <mxPoint x="2559" y="1397.0043887147335" as="targetPoint" />
          </mxGeometry>
        </mxCell>
        <mxCell id="80Y661r_ULmCbY4gzf0H-98" value="" style="edgeStyle=orthogonalEdgeStyle;rounded=0;orthogonalLoop=1;jettySize=auto;html=1;" edge="1" parent="1" source="80Y661r_ULmCbY4gzf0H-103" target="80Y661r_ULmCbY4gzf0H-106">
          <mxGeometry relative="1" as="geometry" />
        </mxCell>
        <mxCell id="80Y661r_ULmCbY4gzf0H-99" value="" style="edgeStyle=orthogonalEdgeStyle;rounded=0;orthogonalLoop=1;jettySize=auto;html=1;" edge="1" parent="1" source="80Y661r_ULmCbY4gzf0H-103" target="80Y661r_ULmCbY4gzf0H-106">
          <mxGeometry relative="1" as="geometry" />
        </mxCell>
        <mxCell id="80Y661r_ULmCbY4gzf0H-100" value="" style="edgeStyle=orthogonalEdgeStyle;rounded=0;orthogonalLoop=1;jettySize=auto;html=1;" edge="1" parent="1" source="80Y661r_ULmCbY4gzf0H-103" target="80Y661r_ULmCbY4gzf0H-106">
          <mxGeometry relative="1" as="geometry" />
        </mxCell>
        <mxCell id="80Y661r_ULmCbY4gzf0H-101" value="" style="edgeStyle=orthogonalEdgeStyle;rounded=0;orthogonalLoop=1;jettySize=auto;html=1;" edge="1" parent="1" source="80Y661r_ULmCbY4gzf0H-103" target="80Y661r_ULmCbY4gzf0H-106">
          <mxGeometry relative="1" as="geometry" />
        </mxCell>
        <mxCell id="80Y661r_ULmCbY4gzf0H-102" value="" style="edgeStyle=orthogonalEdgeStyle;rounded=0;orthogonalLoop=1;jettySize=auto;html=1;" edge="1" parent="1" source="80Y661r_ULmCbY4gzf0H-103" target="80Y661r_ULmCbY4gzf0H-108">
          <mxGeometry relative="1" as="geometry" />
        </mxCell>
        <mxCell id="80Y661r_ULmCbY4gzf0H-103" value="Display pause screen&lt;div&gt;with option&amp;nbsp;&lt;/div&gt;" style="whiteSpace=wrap;html=1;" vertex="1" parent="1">
          <mxGeometry x="2688.74" y="1268" width="120" height="60" as="geometry" />
        </mxCell>
        <mxCell id="80Y661r_ULmCbY4gzf0H-104" value="" style="edgeStyle=orthogonalEdgeStyle;rounded=0;orthogonalLoop=1;jettySize=auto;html=1;" edge="1" parent="1" source="80Y661r_ULmCbY4gzf0H-105" target="80Y661r_ULmCbY4gzf0H-141">
          <mxGeometry relative="1" as="geometry" />
        </mxCell>
        <mxCell id="80Y661r_ULmCbY4gzf0H-105" value="When Player pressed&lt;div&gt;&amp;nbsp;resume button or ESC&amp;nbsp;&lt;/div&gt;" style="rhombus;whiteSpace=wrap;html=1;" vertex="1" parent="1">
          <mxGeometry x="2479" y="1397" width="159.5" height="70" as="geometry" />
        </mxCell>
        <mxCell id="80Y661r_ULmCbY4gzf0H-106" value="When player&amp;nbsp;&lt;div&gt;pressed quit&amp;nbsp;&lt;/div&gt;" style="rhombus;whiteSpace=wrap;html=1;" vertex="1" parent="1">
          <mxGeometry x="2854.24" y="1397" width="140.5" height="80" as="geometry" />
        </mxCell>
        <mxCell id="80Y661r_ULmCbY4gzf0H-107" value="" style="edgeStyle=orthogonalEdgeStyle;rounded=0;orthogonalLoop=1;jettySize=auto;html=1;" edge="1" parent="1" source="80Y661r_ULmCbY4gzf0H-108" target="80Y661r_ULmCbY4gzf0H-111">
          <mxGeometry relative="1" as="geometry" />
        </mxCell>
        <mxCell id="80Y661r_ULmCbY4gzf0H-108" value="When player&lt;div&gt;pressed restart&lt;/div&gt;" style="rhombus;whiteSpace=wrap;html=1;" vertex="1" parent="1">
          <mxGeometry x="2683.49" y="1397" width="130.5" height="80" as="geometry" />
        </mxCell>
        <mxCell id="80Y661r_ULmCbY4gzf0H-109" value="" style="edgeStyle=orthogonalEdgeStyle;rounded=0;orthogonalLoop=1;jettySize=auto;html=1;" edge="1" parent="1" source="80Y661r_ULmCbY4gzf0H-111" target="80Y661r_ULmCbY4gzf0H-112">
          <mxGeometry relative="1" as="geometry" />
        </mxCell>
        <mxCell id="80Y661r_ULmCbY4gzf0H-110" value="" style="edgeStyle=orthogonalEdgeStyle;rounded=0;orthogonalLoop=1;jettySize=auto;html=1;exitX=0.559;exitY=0.89;exitDx=0;exitDy=0;exitPerimeter=0;" edge="1" parent="1" source="80Y661r_ULmCbY4gzf0H-111" target="80Y661r_ULmCbY4gzf0H-113">
          <mxGeometry relative="1" as="geometry">
            <mxPoint x="2739.238461538461" y="1626.986422045387" as="sourcePoint" />
            <Array as="points">
              <mxPoint x="2749.24" y="1578" />
              <mxPoint x="2749.24" y="1627" />
              <mxPoint x="2830.24" y="1627" />
            </Array>
          </mxGeometry>
        </mxCell>
        <mxCell id="80Y661r_ULmCbY4gzf0H-111" value="Confirmation&lt;div&gt;for restart&lt;/div&gt;" style="rhombus;whiteSpace=wrap;html=1;" vertex="1" parent="1">
          <mxGeometry x="2683.49" y="1507" width="130.5" height="80" as="geometry" />
        </mxCell>
        <mxCell id="80Y661r_ULmCbY4gzf0H-112" value="Restart to the original versio" style="whiteSpace=wrap;html=1;" vertex="1" parent="1">
          <mxGeometry x="2689.24" y="1797" width="120" height="60" as="geometry" />
        </mxCell>
        <mxCell id="80Y661r_ULmCbY4gzf0H-113" value="Return to pause menu" style="whiteSpace=wrap;html=1;" vertex="1" parent="1">
          <mxGeometry x="2769.24" y="1666.9999999999995" width="120" height="60" as="geometry" />
        </mxCell>
        <mxCell id="80Y661r_ULmCbY4gzf0H-114" value="Yes" style="text;html=1;align=center;verticalAlign=middle;whiteSpace=wrap;rounded=0;" vertex="1" parent="1">
          <mxGeometry x="2679.24" y="1607" width="60" height="30" as="geometry" />
        </mxCell>
        <mxCell id="80Y661r_ULmCbY4gzf0H-115" value="No" style="text;html=1;align=center;verticalAlign=middle;resizable=0;points=[];autosize=1;strokeColor=none;fillColor=none;" vertex="1" parent="1">
          <mxGeometry x="2769.24" y="1605" width="40" height="30" as="geometry" />
        </mxCell>
        <mxCell id="80Y661r_ULmCbY4gzf0H-116" value="" style="edgeStyle=orthogonalEdgeStyle;rounded=0;orthogonalLoop=1;jettySize=auto;html=1;" edge="1" parent="1" target="80Y661r_ULmCbY4gzf0H-119">
          <mxGeometry relative="1" as="geometry">
            <mxPoint x="2924.49" y="1477" as="sourcePoint" />
          </mxGeometry>
        </mxCell>
        <mxCell id="80Y661r_ULmCbY4gzf0H-117" value="" style="edgeStyle=orthogonalEdgeStyle;rounded=0;orthogonalLoop=1;jettySize=auto;html=1;" edge="1" parent="1" source="80Y661r_ULmCbY4gzf0H-119" target="80Y661r_ULmCbY4gzf0H-120">
          <mxGeometry relative="1" as="geometry" />
        </mxCell>
        <mxCell id="80Y661r_ULmCbY4gzf0H-118" value="" style="edgeStyle=orthogonalEdgeStyle;rounded=0;orthogonalLoop=1;jettySize=auto;html=1;exitX=0.559;exitY=0.89;exitDx=0;exitDy=0;exitPerimeter=0;" edge="1" parent="1" source="80Y661r_ULmCbY4gzf0H-119">
          <mxGeometry relative="1" as="geometry">
            <mxPoint x="2914.488461538461" y="1626.986422045387" as="sourcePoint" />
            <Array as="points">
              <mxPoint x="2924.49" y="1578" />
              <mxPoint x="2924.49" y="1627" />
              <mxPoint x="3005.49" y="1627" />
            </Array>
            <mxPoint x="3005.4799999999996" y="1666.9999999999995" as="targetPoint" />
          </mxGeometry>
        </mxCell>
        <mxCell id="80Y661r_ULmCbY4gzf0H-119" value="Confirmation&lt;div&gt;for restart&lt;/div&gt;" style="rhombus;whiteSpace=wrap;html=1;" vertex="1" parent="1">
          <mxGeometry x="2858.74" y="1507" width="130.5" height="80" as="geometry" />
        </mxCell>
        <mxCell id="80Y661r_ULmCbY4gzf0H-120" value="Exit the Game&amp;nbsp;" style="whiteSpace=wrap;html=1;" vertex="1" parent="1">
          <mxGeometry x="2863.99" y="1797" width="120" height="60" as="geometry" />
        </mxCell>
        <mxCell id="80Y661r_ULmCbY4gzf0H-121" value="Return to pause menu" style="whiteSpace=wrap;html=1;" vertex="1" parent="1">
          <mxGeometry x="2975.25" y="1669.9999999999995" width="120" height="60" as="geometry" />
        </mxCell>
        <mxCell id="80Y661r_ULmCbY4gzf0H-122" value="Yes" style="text;html=1;align=center;verticalAlign=middle;whiteSpace=wrap;rounded=0;" vertex="1" parent="1">
          <mxGeometry x="2854.49" y="1607" width="60" height="30" as="geometry" />
        </mxCell>
        <mxCell id="80Y661r_ULmCbY4gzf0H-123" value="No" style="text;html=1;align=center;verticalAlign=middle;resizable=0;points=[];autosize=1;strokeColor=none;fillColor=none;" vertex="1" parent="1">
          <mxGeometry x="2944.49" y="1605" width="40" height="30" as="geometry" />
        </mxCell>
        <mxCell id="80Y661r_ULmCbY4gzf0H-124" value="Door to the previous room are also temporary closed off" style="whiteSpace=wrap;html=1;" vertex="1" parent="1">
          <mxGeometry x="2395.75" y="1340" width="130" height="70" as="geometry" />
        </mxCell>
        <mxCell id="80Y661r_ULmCbY4gzf0H-125" value="" style="endArrow=classic;html=1;rounded=0;fontSize=12;startSize=8;endSize=8;curved=1;" edge="1" parent="1">
          <mxGeometry width="50" height="50" relative="1" as="geometry">
            <mxPoint x="3318.31" y="1011" as="sourcePoint" />
            <mxPoint x="3318.31" y="1031" as="targetPoint" />
          </mxGeometry>
        </mxCell>
        <mxCell id="80Y661r_ULmCbY4gzf0H-126" value="" style="edgeStyle=orthogonalEdgeStyle;rounded=0;orthogonalLoop=1;jettySize=auto;html=1;" edge="1" parent="1" source="80Y661r_ULmCbY4gzf0H-127" target="80Y661r_ULmCbY4gzf0H-129">
          <mxGeometry relative="1" as="geometry" />
        </mxCell>
        <mxCell id="80Y661r_ULmCbY4gzf0H-127" value="Enemies Interaction" style="rounded=0;whiteSpace=wrap;html=1;" vertex="1" parent="1">
          <mxGeometry x="3209" y="1031" width="217.5" height="60" as="geometry" />
        </mxCell>
        <mxCell id="80Y661r_ULmCbY4gzf0H-128" value="" style="edgeStyle=orthogonalEdgeStyle;rounded=0;orthogonalLoop=1;jettySize=auto;html=1;" edge="1" parent="1" source="80Y661r_ULmCbY4gzf0H-129" target="80Y661r_ULmCbY4gzf0H-132">
          <mxGeometry relative="1" as="geometry" />
        </mxCell>
        <mxCell id="80Y661r_ULmCbY4gzf0H-129" value="When the player enter the enemies FOV,&amp;nbsp; begin to target towards the player" style="whiteSpace=wrap;html=1;rounded=0;" vertex="1" parent="1">
          <mxGeometry x="3257.75" y="1141" width="120" height="60" as="geometry" />
        </mxCell>
        <mxCell id="80Y661r_ULmCbY4gzf0H-130" value="" style="edgeStyle=orthogonalEdgeStyle;rounded=0;orthogonalLoop=1;jettySize=auto;html=1;" edge="1" parent="1" source="80Y661r_ULmCbY4gzf0H-132" target="80Y661r_ULmCbY4gzf0H-134">
          <mxGeometry relative="1" as="geometry" />
        </mxCell>
        <mxCell id="80Y661r_ULmCbY4gzf0H-131" value="" style="edgeStyle=orthogonalEdgeStyle;rounded=0;orthogonalLoop=1;jettySize=auto;html=1;" edge="1" parent="1" source="80Y661r_ULmCbY4gzf0H-132" target="80Y661r_ULmCbY4gzf0H-134">
          <mxGeometry relative="1" as="geometry" />
        </mxCell>
        <mxCell id="80Y661r_ULmCbY4gzf0H-132" value="Melee or&amp;nbsp;&lt;div&gt;Projectile enemy&lt;/div&gt;" style="rhombus;whiteSpace=wrap;html=1;rounded=0;" vertex="1" parent="1">
          <mxGeometry x="3249.62" y="1234" width="136.25" height="85" as="geometry" />
        </mxCell>
        <mxCell id="80Y661r_ULmCbY4gzf0H-133" value="" style="edgeStyle=orthogonalEdgeStyle;rounded=0;orthogonalLoop=1;jettySize=auto;html=1;" edge="1" parent="1" source="80Y661r_ULmCbY4gzf0H-134" target="80Y661r_ULmCbY4gzf0H-139">
          <mxGeometry relative="1" as="geometry" />
        </mxCell>
        <mxCell id="80Y661r_ULmCbY4gzf0H-134" value="Enemy start to walk toward player until they are in the effective attack range" style="whiteSpace=wrap;html=1;rounded=0;" vertex="1" parent="1">
          <mxGeometry x="3172.005" y="1358" width="120" height="60" as="geometry" />
        </mxCell>
        <mxCell id="80Y661r_ULmCbY4gzf0H-135" value="Melee" style="text;html=1;align=center;verticalAlign=middle;whiteSpace=wrap;rounded=0;" vertex="1" parent="1">
          <mxGeometry x="3237" y="1319" width="60" height="30" as="geometry" />
        </mxCell>
        <mxCell id="80Y661r_ULmCbY4gzf0H-136" value="" style="edgeStyle=orthogonalEdgeStyle;rounded=0;orthogonalLoop=1;jettySize=auto;html=1;" edge="1" parent="1">
          <mxGeometry relative="1" as="geometry">
            <mxPoint x="3317" y="1339.0042528735637" as="sourcePoint" />
            <mxPoint x="3400" y="1360" as="targetPoint" />
          </mxGeometry>
        </mxCell>
        <mxCell id="80Y661r_ULmCbY4gzf0H-137" value="Enemy begin to fire projectile. Depending on tier, attacks will be easier/harder to dodge" style="whiteSpace=wrap;html=1;rounded=0;" vertex="1" parent="1">
          <mxGeometry x="3335" y="1360" width="129.99" height="70" as="geometry" />
        </mxCell>
        <mxCell id="80Y661r_ULmCbY4gzf0H-138" value="Projectile" style="text;html=1;align=center;verticalAlign=middle;whiteSpace=wrap;rounded=0;" vertex="1" parent="1">
          <mxGeometry x="3325.87" y="1319" width="60" height="30" as="geometry" />
        </mxCell>
        <mxCell id="80Y661r_ULmCbY4gzf0H-139" value="Swing attacks at players(EXP: a sword spinning around enemy with x second for Tier 1)" style="whiteSpace=wrap;html=1;rounded=0;" vertex="1" parent="1">
          <mxGeometry x="3157.01" y="1460" width="150" height="80" as="geometry" />
        </mxCell>
        <mxCell id="80Y661r_ULmCbY4gzf0H-140" value="" style="edgeStyle=orthogonalEdgeStyle;rounded=0;orthogonalLoop=1;jettySize=auto;html=1;" edge="1" parent="1" source="80Y661r_ULmCbY4gzf0H-141" target="80Y661r_ULmCbY4gzf0H-142">
          <mxGeometry relative="1" as="geometry" />
        </mxCell>
        <mxCell id="80Y661r_ULmCbY4gzf0H-141" value="Unfreeze game" style="whiteSpace=wrap;html=1;" vertex="1" parent="1">
          <mxGeometry x="2498.75" y="1507" width="120" height="60" as="geometry" />
        </mxCell>
        <mxCell id="80Y661r_ULmCbY4gzf0H-142" value="Return to normal gameplay" style="whiteSpace=wrap;html=1;" vertex="1" parent="1">
          <mxGeometry x="2498.75" y="1647" width="120" height="60" as="geometry" />
        </mxCell>
        <mxCell id="80Y661r_ULmCbY4gzf0H-143" value="" style="edgeStyle=orthogonalEdgeStyle;rounded=0;orthogonalLoop=1;jettySize=auto;html=1;" edge="1" parent="1" source="80Y661r_ULmCbY4gzf0H-144" target="80Y661r_ULmCbY4gzf0H-146">
          <mxGeometry relative="1" as="geometry" />
        </mxCell>
        <mxCell id="80Y661r_ULmCbY4gzf0H-144" value="Interac button press near shop&amp;nbsp;" style="rhombus;whiteSpace=wrap;html=1;" vertex="1" parent="1">
          <mxGeometry x="-505" y="1030" width="160" height="79" as="geometry" />
        </mxCell>
        <mxCell id="80Y661r_ULmCbY4gzf0H-145" value="" style="edgeStyle=orthogonalEdgeStyle;rounded=0;orthogonalLoop=1;jettySize=auto;html=1;" edge="1" parent="1" source="80Y661r_ULmCbY4gzf0H-146" target="80Y661r_ULmCbY4gzf0H-147">
          <mxGeometry relative="1" as="geometry" />
        </mxCell>
        <mxCell id="80Y661r_ULmCbY4gzf0H-146" value="Open Shop menu" style="whiteSpace=wrap;html=1;" vertex="1" parent="1">
          <mxGeometry x="-485" y="1174" width="120" height="60" as="geometry" />
        </mxCell>
        <mxCell id="80Y661r_ULmCbY4gzf0H-147" value="Present upgrade and items option" style="whiteSpace=wrap;html=1;" vertex="1" parent="1">
          <mxGeometry x="-485" y="1314" width="120" height="60" as="geometry" />
        </mxCell>
        <mxCell id="80Y661r_ULmCbY4gzf0H-148" value="Reduce MP by 20" style="whiteSpace=wrap;html=1;" vertex="1" parent="1">
          <mxGeometry x="1642.5" y="1300" width="120" height="60" as="geometry" />
        </mxCell>
        <mxCell id="80Y661r_ULmCbY4gzf0H-149" value="Reduce MP by 20" style="whiteSpace=wrap;html=1;" vertex="1" parent="1">
          <mxGeometry x="1860" y="1690" width="120" height="60" as="geometry" />
        </mxCell>
        <mxCell id="80Y661r_ULmCbY4gzf0H-150" value="" style="edgeStyle=orthogonalEdgeStyle;rounded=0;orthogonalLoop=1;jettySize=auto;html=1;" edge="1" parent="1" target="80Y661r_ULmCbY4gzf0H-151">
          <mxGeometry relative="1" as="geometry">
            <mxPoint x="2080.5" y="1610" as="sourcePoint" />
          </mxGeometry>
        </mxCell>
        <mxCell id="80Y661r_ULmCbY4gzf0H-151" value="Reduce MP by 20" style="whiteSpace=wrap;html=1;" vertex="1" parent="1">
          <mxGeometry x="2020.5" y="1690" width="120" height="60" as="geometry" />
        </mxCell>
        <mxCell id="80Y661r_ULmCbY4gzf0H-152" value="" style="edgeStyle=orthogonalEdgeStyle;rounded=0;orthogonalLoop=1;jettySize=auto;html=1;" edge="1" parent="1" target="80Y661r_ULmCbY4gzf0H-153">
          <mxGeometry relative="1" as="geometry">
            <mxPoint x="2240" y="1610" as="sourcePoint" />
          </mxGeometry>
        </mxCell>
        <mxCell id="80Y661r_ULmCbY4gzf0H-153" value="Reduce MP by 20" style="whiteSpace=wrap;html=1;" vertex="1" parent="1">
          <mxGeometry x="2180" y="1690" width="120" height="60" as="geometry" />
        </mxCell>
      </root>
    </mxGraphModel>
  </diagram>
</mxfile>
